<?xml version="1.0" encoding="UTF-8"?>
<svg id="a" data-name="Layer 1" xmlns="http://www.w3.org/2000/svg" viewBox="0 0 156.79 116.45">
  <g id="b" data-name="1">
    <rect y="58.22" width="17.42" height="14.56" fill="#fde1d7"/>
    <rect y="43.67" width="17.42" height="14.56" fill="#fde4d9"/>
    <rect x="17.43" y="72.78" width="17.42" height="14.56" fill="#fde1d6"/>
    <rect x="17.43" y="58.22" width="17.42" height="14.56" fill="#fdded3"/>
    <rect x="17.43" y="43.67" width="17.42" height="14.56" fill="#fdded3"/>
    <rect x="17.43" y="29.11" width="17.42" height="14.56" fill="#fdded3"/>
    <rect x="34.85" y="87.33" width="17.42" height="14.56" fill="#fddace"/>
    <rect x="34.85" y="72.78" width="17.42" height="14.56" fill="#fddace"/>
    <rect x="34.85" y="58.22" width="17.42" height="14.56" fill="#fddbce"/>
    <rect x="34.85" y="43.67" width="17.42" height="14.56" fill="#fdddd1"/>
    <rect x="34.85" y="29.11" width="17.42" height="14.56" fill="#fdd9cd"/>
    <rect x="34.85" y="14.56" width="17.42" height="14.56" fill="#fde1d6"/>
    <rect x="52.27" y="101.89" width="17.42" height="14.56" fill="#fddcd1"/>
    <rect x="52.27" y="87.33" width="17.42" height="14.56" fill="#fdd8ca"/>
    <rect x="52.27" y="72.78" width="17.42" height="14.56" fill="#fdd8cb"/>
    <rect x="52.27" y="58.22" width="17.42" height="14.56" fill="#fdd8cb"/>
    <rect x="52.27" y="43.67" width="17.42" height="14.56" fill="#fdd8ca"/>
    <rect x="52.27" y="29.11" width="17.42" height="14.56" fill="#fddbce"/>
    <rect x="52.27" y="14.56" width="17.42" height="14.56" fill="#fddbce"/>
    <rect x="52.27" width="17.42" height="14.56" fill="#fee7de"/>
    <rect x="69.69" y="101.89" width="17.42" height="14.56" fill="#fddcd1"/>
    <rect x="69.69" y="87.33" width="17.42" height="14.56" fill="#fdd8ca"/>
    <rect x="69.69" y="72.78" width="17.42" height="14.56" fill="#fcd4c5"/>
    <rect x="69.69" y="58.22" width="17.42" height="14.56" fill="#fddbce"/>
    <rect x="69.69" y="43.67" width="17.42" height="14.56" fill="#fdddd1"/>
    <rect x="69.69" y="29.11" width="17.42" height="14.56" fill="#fddace"/>
    <rect x="69.69" y="14.56" width="17.42" height="14.56" fill="#fddbce"/>
    <rect x="69.69" width="17.42" height="14.56" fill="#fee7de"/>
    <rect x="87.11" y="101.89" width="17.42" height="14.56" fill="#fddcd1"/>
    <rect x="87.11" y="87.33" width="17.42" height="14.56" fill="#fdd7ca"/>
    <rect x="87.11" y="72.78" width="17.42" height="14.56" fill="#fdd7ca"/>
    <rect x="87.11" y="58.22" width="17.42" height="14.56" fill="#fddcd1"/>
    <rect x="87.11" y="43.67" width="17.42" height="14.56" fill="#fddcd1"/>
    <rect x="87.11" y="29.11" width="17.42" height="14.56" fill="#fdd9cd"/>
    <rect x="87.11" y="14.56" width="17.42" height="14.56" fill="#fddfd4"/>
    <rect x="87.11" width="17.42" height="14.56" fill="#fee5dc"/>
    <rect x="104.53" y="101.89" width="17.42" height="14.56" fill="#fddcd1"/>
    <rect x="104.53" y="87.33" width="17.42" height="14.56" fill="#fddbce"/>
    <rect x="104.53" y="72.78" width="17.42" height="14.56" fill="#fdd7ca"/>
    <rect x="104.53" y="58.22" width="17.42" height="14.56" fill="#fddace"/>
    <rect x="104.53" y="43.67" width="17.42" height="14.56" fill="#fddbd0"/>
    <rect x="104.53" y="29.11" width="17.42" height="14.56" fill="#fdd9cd"/>
    <rect x="104.53" y="14.56" width="17.42" height="14.56" fill="#fde0d5"/>
    <rect x="104.53" width="17.42" height="14.56" fill="#fee6de"/>
    <rect x="121.95" y="87.33" width="17.42" height="14.56" fill="#fddcd1"/>
    <rect x="121.95" y="72.78" width="17.42" height="14.56" fill="#fddcd1"/>
    <rect x="121.95" y="29.11" width="17.42" height="14.56" fill="#fddcd1"/>
    <rect x="121.95" y="14.56" width="17.42" height="14.56" fill="#fde1d6"/>
    <rect x="139.37" y="72.78" width="17.42" height="14.56" fill="#fdddd1"/>
    <rect x="139.37" y="58.22" width="17.42" height="14.56" fill="#fdded3"/>
    <rect x="139.37" y="43.67" width="17.42" height="14.56" fill="#fde1d7"/>
    <rect x="139.37" y="29.11" width="17.42" height="14.56" fill="#fde0d5"/>
    <rect x="121.76" y="43.96" width="17.03" height="28.82" fill="#bfbebe"/>
    <rect x="121.76" y="43.96" width="17.03" height="28.82" fill="none" stroke="#010101" stroke-linecap="round" stroke-linejoin="round" stroke-width=".75"/>
  </g>
</svg>