<?xml version="1.0" encoding="UTF-8"?>
<svg id="a" data-name="Layer 1" xmlns="http://www.w3.org/2000/svg" viewBox="0 0 156.79 116.45">
  <g id="b" data-name="11">
    <rect y="58.22" width="17.42" height="14.56" fill="#f26747"/>
    <rect y="43.67" width="17.42" height="14.56" fill="#f9aa92"/>
    <rect x="17.43" y="72.78" width="17.42" height="14.56" fill="#ef442c"/>
    <rect x="17.43" y="58.22" width="17.42" height="14.56" fill="#f04c33"/>
    <rect x="17.43" y="43.67" width="17.42" height="14.56" fill="#fab8a4"/>
    <rect x="17.43" y="29.11" width="17.42" height="14.56" fill="#fab7a2"/>
    <rect x="34.85" y="87.34" width="17.42" height="14.56" fill="#ef402a"/>
    <rect x="34.85" y="72.78" width="17.42" height="14.56" fill="#ef3c26"/>
    <rect x="34.85" y="58.22" width="17.42" height="14.56" fill="#ee3625"/>
    <rect x="34.85" y="43.67" width="17.42" height="14.56" fill="#fbc5b4"/>
    <rect x="34.85" y="29.11" width="17.42" height="14.56" fill="#fbc3b0"/>
    <rect x="34.85" y="14.56" width="17.42" height="14.56" fill="#fbc1af"/>
    <rect x="52.27" y="101.89" width="17.42" height="14.56" fill="#f04f35"/>
    <rect x="52.27" y="87.34" width="17.42" height="14.56" fill="#ef3c26"/>
    <rect x="52.27" y="72.78" width="17.42" height="14.56" fill="#f1583b"/>
    <rect x="52.27" y="58.22" width="17.42" height="14.56" fill="#ee2d24"/>
    <rect x="52.27" y="43.67" width="17.42" height="14.56" fill="#fbc3b0"/>
    <rect x="52.27" y="29.11" width="17.42" height="14.56" fill="#fcccbb"/>
    <rect x="52.27" y="14.56" width="17.42" height="14.56" fill="#fbc1ae"/>
    <rect x="52.27" width="17.42" height="14.56" fill="#fbc5b4"/>
    <rect x="69.69" y="101.89" width="17.42" height="14.56" fill="#ef442c"/>
    <rect x="69.69" y="87.34" width="17.42" height="14.56" fill="#ef3825"/>
    <rect x="69.69" y="72.78" width="17.42" height="14.56" fill="#ee3024"/>
    <rect x="69.69" y="58.22" width="17.42" height="14.56" fill="#ee2a24"/>
    <rect x="69.69" y="43.67" width="17.42" height="14.56" fill="#fbc9b9"/>
    <rect x="69.69" y="29.11" width="17.42" height="14.56" fill="#fbc4b1"/>
    <rect x="69.69" y="14.56" width="17.42" height="14.56" fill="#fbc3b0"/>
    <rect x="69.69" width="17.42" height="14.56" fill="#fcccbb"/>
    <rect x="87.11" y="101.89" width="17.42" height="14.56" fill="#ef472e"/>
    <rect x="87.11" y="87.34" width="17.42" height="14.56" fill="#ef3825"/>
    <rect x="87.11" y="72.78" width="17.42" height="14.56" fill="#ee3625"/>
    <rect x="87.11" y="58.22" width="17.42" height="14.56" fill="#ef442c"/>
    <rect x="87.11" y="43.67" width="17.42" height="14.56" fill="#f8a58c"/>
    <rect x="87.11" y="29.11" width="17.42" height="14.56" fill="#fbc1ae"/>
    <rect x="87.11" y="14.56" width="17.42" height="14.56" fill="#fabeac"/>
    <rect x="87.11" width="17.42" height="14.56" fill="#fabba6"/>
    <rect x="104.53" y="101.89" width="17.42" height="14.56" fill="#ef442c"/>
    <rect x="104.53" y="87.34" width="17.42" height="14.56" fill="#f04930"/>
    <rect x="104.53" y="72.78" width="17.42" height="14.56" fill="#ee3425"/>
    <rect x="104.53" y="58.22" width="17.42" height="14.56" fill="#ef402a"/>
    <rect x="104.53" y="43.67" width="17.42" height="14.56" fill="#f8a48b"/>
    <rect x="104.53" y="29.11" width="17.42" height="14.56" fill="#fcccbd"/>
    <rect x="104.53" y="14.56" width="17.42" height="14.56" fill="#fabeaa"/>
    <rect x="104.53" width="17.42" height="14.56" fill="#fab8a3"/>
    <rect x="121.95" y="87.34" width="17.42" height="14.56" fill="#ef402a"/>
    <rect x="121.95" y="72.78" width="17.42" height="14.56" fill="#ef3c26"/>
    <rect x="121.95" y="29.11" width="17.42" height="14.56" fill="#fabdaa"/>
    <rect x="121.95" y="14.56" width="17.42" height="14.56" fill="#fabca9"/>
    <rect x="139.37" y="72.78" width="17.42" height="14.56" fill="#f0543a"/>
    <rect x="139.37" y="58.22" width="17.42" height="14.56" fill="#f26b4e"/>
    <rect x="139.37" y="43.67" width="17.42" height="14.56" fill="#f8a992"/>
    <rect x="139.37" y="29.11" width="17.42" height="14.56" fill="#f9b49e"/>
    <rect x="121.76" y="43.96" width="17.03" height="28.82" fill="#bfbebe"/>
    <rect x="121.76" y="43.96" width="17.03" height="28.82" fill="none" stroke="#010101" stroke-linecap="round" stroke-linejoin="round" stroke-width=".75"/>
  </g>
</svg>