<?xml version="1.0" encoding="UTF-8"?>
<svg id="a" data-name="Layer 1" xmlns="http://www.w3.org/2000/svg" viewBox="0 0 156.79 116.45">
  <g id="b" data-name="12">
    <rect y="58.22" width="17.42" height="14.56" fill="#f9aa92"/>
    <rect y="43.67" width="17.42" height="14.56" fill="#fabba8"/>
    <rect x="17.43" y="72.78" width="17.42" height="14.56" fill="#fbc3b0"/>
    <rect x="17.43" y="58.22" width="17.42" height="14.56" fill="#fab8a2"/>
    <rect x="17.43" y="43.67" width="17.42" height="14.56" fill="#fabca9"/>
    <rect x="17.43" y="29.11" width="17.42" height="14.56" fill="#fbc1af"/>
    <rect x="34.85" y="87.34" width="17.42" height="14.56" fill="#fabeac"/>
    <rect x="34.85" y="72.78" width="17.42" height="14.56" fill="#fccfbf"/>
    <rect x="34.85" y="58.22" width="17.42" height="14.56" fill="#fcccbc"/>
    <rect x="34.85" y="43.67" width="17.42" height="14.56" fill="#fccebe"/>
    <rect x="34.85" y="29.11" width="17.42" height="14.56" fill="#fbc8b6"/>
    <rect x="34.85" y="14.56" width="17.42" height="14.56" fill="#fbc8b6"/>
    <rect x="52.27" y="101.89" width="17.42" height="14.56" fill="#f9b19b"/>
    <rect x="52.27" y="87.34" width="17.42" height="14.56" fill="#fbc5b3"/>
    <rect x="52.27" y="72.78" width="17.42" height="14.56" fill="#fcd1c4"/>
    <rect x="52.27" y="58.22" width="17.42" height="14.56" fill="#fcccbc"/>
    <rect x="52.27" y="43.67" width="17.42" height="14.56" fill="#fbc8b7"/>
    <rect x="52.27" y="29.11" width="17.42" height="14.56" fill="#fcd5c7"/>
    <rect x="52.27" y="14.56" width="17.42" height="14.56" fill="#fcccbb"/>
    <rect x="52.27" width="17.42" height="14.56" fill="#fbc1ae"/>
    <rect x="69.69" y="101.89" width="17.42" height="14.56" fill="#fbc0ac"/>
    <rect x="69.69" y="87.34" width="17.42" height="14.56" fill="#fbc7b5"/>
    <rect x="69.69" y="72.78" width="17.42" height="14.56" fill="#fcccbd"/>
    <rect x="69.69" y="58.22" width="17.42" height="14.56" fill="#fcd0c1"/>
    <rect x="69.69" y="43.67" width="17.42" height="14.56" fill="#fcccbb"/>
    <rect x="69.69" y="29.11" width="17.42" height="14.56" fill="#fcccbb"/>
    <rect x="69.69" y="14.56" width="17.42" height="14.56" fill="#fbc8b6"/>
    <rect x="69.69" width="17.42" height="14.56" fill="#fabeaa"/>
    <rect x="87.11" y="101.89" width="17.42" height="14.56" fill="#f58567"/>
    <rect x="87.11" y="87.34" width="17.42" height="14.56" fill="#f9af98"/>
    <rect x="87.11" y="72.78" width="17.42" height="14.56" fill="#f68f73"/>
    <rect x="87.11" y="58.22" width="17.42" height="14.56" fill="#fbc0ac"/>
    <rect x="87.11" y="43.67" width="17.42" height="14.56" fill="#fbc8b8"/>
    <rect x="87.11" y="29.11" width="17.42" height="14.56" fill="#fcccbd"/>
    <rect x="87.11" y="14.56" width="17.42" height="14.56" fill="#fbcbba"/>
    <rect x="87.11" width="17.42" height="14.56" fill="#fabeaa"/>
    <rect x="104.53" y="101.89" width="17.42" height="14.56" fill="#f47a5d"/>
    <rect x="104.53" y="87.34" width="17.42" height="14.56" fill="#f48164"/>
    <rect x="104.53" y="72.78" width="17.42" height="14.56" fill="#fab8a4"/>
    <rect x="104.53" y="58.22" width="17.42" height="14.56" fill="#f15f41"/>
    <rect x="104.53" y="43.67" width="17.42" height="14.56" fill="#fcccbb"/>
    <rect x="104.53" y="29.11" width="17.42" height="14.56" fill="#fcd3c5"/>
    <rect x="104.53" y="14.56" width="17.42" height="14.56" fill="#f9b19b"/>
    <rect x="104.53" width="17.42" height="14.56" fill="#f9b49e"/>
    <rect x="121.95" y="87.34" width="17.42" height="14.56" fill="#f26c4f"/>
    <rect x="121.95" y="72.78" width="17.42" height="14.56" fill="#ef3925"/>
    <rect x="121.95" y="29.11" width="17.42" height="14.56" fill="#fbc0ad"/>
    <rect x="121.95" y="14.56" width="17.42" height="14.56" fill="#fcccbd"/>
    <rect x="139.37" y="72.78" width="17.42" height="14.56" fill="#ef3925"/>
    <rect x="139.37" y="58.22" width="17.42" height="14.56" fill="#ef3925"/>
    <rect x="139.37" y="43.67" width="17.42" height="14.56" fill="#f5886a"/>
    <rect x="139.37" y="29.11" width="17.42" height="14.56" fill="#f9ad96"/>
    <rect x="121.76" y="43.96" width="17.03" height="28.82" fill="#bfbebe"/>
    <rect x="121.76" y="43.96" width="17.03" height="28.82" fill="none" stroke="#010101" stroke-linecap="round" stroke-linejoin="round" stroke-width=".75"/>
  </g>
</svg>