<?xml version="1.0" encoding="UTF-8"?>
<svg id="a" data-name="Layer 1" xmlns="http://www.w3.org/2000/svg" viewBox="0 0 156.79 116.45">
  <g id="b" data-name="14">
    <rect y="58.22" width="17.42" height="14.56" fill="#f26c4f"/>
    <rect y="43.67" width="17.42" height="14.56" fill="#f26445"/>
    <rect x="17.43" y="72.78" width="17.42" height="14.56" fill="#f04e35"/>
    <rect x="17.43" y="58.22" width="17.42" height="14.56" fill="#f1573a"/>
    <rect x="17.43" y="43.67" width="17.42" height="14.56" fill="#f36e50"/>
    <rect x="17.43" y="29.11" width="17.42" height="14.56" fill="#ef462d"/>
    <rect x="34.85" y="87.34" width="17.42" height="14.56" fill="#f04931"/>
    <rect x="34.85" y="72.78" width="17.42" height="14.56" fill="#f2694d"/>
    <rect x="34.85" y="58.22" width="17.42" height="14.56" fill="#f58c6f"/>
    <rect x="34.85" y="43.67" width="17.42" height="14.56" fill="#f4795b"/>
    <rect x="34.85" y="29.11" width="17.42" height="14.56" fill="#f16144"/>
    <rect x="34.85" y="14.56" width="17.42" height="14.56" fill="#ef482f"/>
    <rect x="52.27" y="101.89" width="17.42" height="14.56" fill="#f04f35"/>
    <rect x="52.27" y="87.34" width="17.42" height="14.56" fill="#f26346"/>
    <rect x="52.27" y="72.78" width="17.42" height="14.56" fill="#fab8a3"/>
    <rect x="52.27" y="58.22" width="17.42" height="14.56" fill="#f9b19a"/>
    <rect x="52.27" y="43.67" width="17.42" height="14.56" fill="#f8a68e"/>
    <rect x="52.27" y="29.11" width="17.42" height="14.56" fill="#f58b6e"/>
    <rect x="52.27" y="14.56" width="17.42" height="14.56" fill="#ef3f28"/>
    <rect x="52.27" width="17.42" height="14.56" fill="#f04f35"/>
    <rect x="69.69" y="101.89" width="17.42" height="14.56" fill="#ef462d"/>
    <rect x="69.69" y="87.34" width="17.42" height="14.56" fill="#f1563a"/>
    <rect x="69.69" y="72.78" width="17.42" height="14.56" fill="#f9ad94"/>
    <rect x="69.69" y="58.22" width="17.42" height="14.56" fill="#f9ad95"/>
    <rect x="69.69" y="43.67" width="17.42" height="14.56" fill="#fab9a5"/>
    <rect x="69.69" y="29.11" width="17.42" height="14.56" fill="#f58b6d"/>
    <rect x="69.69" y="14.56" width="17.42" height="14.56" fill="#ef482f"/>
    <rect x="69.69" width="17.42" height="14.56" fill="#f04f35"/>
    <rect x="87.11" y="101.89" width="17.42" height="14.56" fill="#f04f35"/>
    <rect x="87.11" y="87.34" width="17.42" height="14.56" fill="#f3785a"/>
    <rect x="87.11" y="72.78" width="17.42" height="14.56" fill="#fabba6"/>
    <rect x="87.11" y="58.22" width="17.42" height="14.56" fill="#fcccbb"/>
    <rect x="87.11" y="43.67" width="17.42" height="14.56" fill="#fabca9"/>
    <rect x="87.11" y="29.11" width="17.42" height="14.56" fill="#f9aa92"/>
    <rect x="87.11" y="14.56" width="17.42" height="14.56" fill="#ef432b"/>
    <rect x="87.11" width="17.42" height="14.56" fill="#f1593b"/>
    <rect x="104.53" y="101.89" width="17.42" height="14.56" fill="#f05338"/>
    <rect x="104.53" y="87.34" width="17.42" height="14.56" fill="#f05339"/>
    <rect x="104.53" y="72.78" width="17.42" height="14.56" fill="#fbc5b3"/>
    <rect x="104.53" y="58.22" width="17.42" height="14.56" fill="#fabeac"/>
    <rect x="104.53" y="43.67" width="17.42" height="14.56" fill="#f9b29c"/>
    <rect x="104.53" y="29.11" width="17.42" height="14.56" fill="#f6977b"/>
    <rect x="104.53" y="14.56" width="17.42" height="14.56" fill="#f1563a"/>
    <rect x="104.53" width="17.42" height="14.56" fill="#f15b3c"/>
    <rect x="121.95" y="87.34" width="17.42" height="14.56" fill="#f05238"/>
    <rect x="121.95" y="72.78" width="17.42" height="14.56" fill="#f15c3e"/>
    <rect x="121.95" y="29.11" width="17.42" height="14.56" fill="#f05137"/>
    <rect x="121.95" y="14.56" width="17.42" height="14.56" fill="#f37455"/>
    <rect x="139.37" y="72.78" width="17.42" height="14.56" fill="#ef3f28"/>
    <rect x="139.37" y="58.22" width="17.42" height="14.56" fill="#f04931"/>
    <rect x="139.37" y="43.67" width="17.42" height="14.56" fill="#f05036"/>
    <rect x="139.37" y="29.11" width="17.42" height="14.56" fill="#f1583b"/>
    <rect x="121.76" y="43.96" width="17.03" height="28.82" fill="#bfbebe"/>
    <rect x="121.76" y="43.96" width="17.03" height="28.82" fill="none" stroke="#010101" stroke-linecap="round" stroke-linejoin="round" stroke-width=".75"/>
  </g>
</svg>