<?xml version="1.0" encoding="UTF-8"?>
<svg id="a" data-name="Layer 1" xmlns="http://www.w3.org/2000/svg" viewBox="0 0 156.79 116.45">
  <g id="b" data-name="2">
    <rect x="0" y="58.22" width="17.42" height="14.56" fill="#f05036"/>
    <rect x="0" y="43.67" width="17.42" height="14.56" fill="#f04f35"/>
    <rect x="17.43" y="72.78" width="17.42" height="14.56" fill="#ef402a"/>
    <rect x="17.43" y="58.22" width="17.42" height="14.56" fill="#ef3e27"/>
    <rect x="17.43" y="43.67" width="17.42" height="14.56" fill="#ef3f28"/>
    <rect x="17.43" y="29.11" width="17.42" height="14.56" fill="#ef412b"/>
    <rect x="34.85" y="87.33" width="17.42" height="14.56" fill="#ef3e27"/>
    <rect x="34.85" y="72.78" width="17.42" height="14.56" fill="#ee3425"/>
    <rect x="34.85" y="58.22" width="17.42" height="14.56" fill="#ee3425"/>
    <rect x="34.85" y="43.67" width="17.42" height="14.56" fill="#ee3424"/>
    <rect x="34.85" y="29.11" width="17.42" height="14.56" fill="#ef3b26"/>
    <rect x="34.85" y="14.56" width="17.42" height="14.56" fill="#ef412b"/>
    <rect x="52.27" y="101.89" width="17.42" height="14.56" fill="#ef412b"/>
    <rect x="52.27" y="87.33" width="17.42" height="14.56" fill="#ef3b26"/>
    <rect x="52.27" y="72.78" width="17.42" height="14.56" fill="#ee2c24"/>
    <rect x="52.27" y="58.22" width="17.42" height="14.56" fill="#ee2a24"/>
    <rect x="52.27" y="43.67" width="17.42" height="14.56" fill="#ee2c24"/>
    <rect x="52.27" y="29.11" width="17.42" height="14.56" fill="#ee3425"/>
    <rect x="52.27" y="14.56" width="17.42" height="14.56" fill="#ef3d27"/>
    <rect x="52.27" width="17.42" height="14.56" fill="#f04931"/>
    <rect x="69.69" y="101.89" width="17.42" height="14.56" fill="#ef402a"/>
    <rect x="69.69" y="87.33" width="17.42" height="14.56" fill="#ee3424"/>
    <rect x="69.69" y="72.78" width="17.42" height="14.56" fill="#ee2c24"/>
    <rect x="69.69" y="58.22" width="17.42" height="14.56" fill="#ed2224"/>
    <rect x="69.69" y="43.67" width="17.42" height="14.56" fill="#ee2524"/>
    <rect x="69.69" y="29.11" width="17.42" height="14.56" fill="#ee2f24"/>
    <rect x="69.69" y="14.56" width="17.42" height="14.56" fill="#ef3b26"/>
    <rect x="69.69" width="17.42" height="14.56" fill="#f04c33"/>
    <rect x="87.11" y="101.89" width="17.42" height="14.56" fill="#ef3f28"/>
    <rect x="87.11" y="87.33" width="17.42" height="14.56" fill="#ee3424"/>
    <rect x="87.11" y="72.78" width="17.42" height="14.56" fill="#ee2c24"/>
    <rect x="87.11" y="58.22" width="17.42" height="14.56" fill="#ee2724"/>
    <rect x="87.11" y="43.67" width="17.42" height="14.56" fill="#ee2a24"/>
    <rect x="87.11" y="29.11" width="17.42" height="14.56" fill="#ee3424"/>
    <rect x="87.11" y="14.56" width="17.42" height="14.56" fill="#ef3d27"/>
    <rect x="87.11" width="17.42" height="14.56" fill="#f04c33"/>
    <rect x="104.53" y="101.89" width="17.42" height="14.56" fill="#ef3f28"/>
    <rect x="104.53" y="87.33" width="17.42" height="14.56" fill="#ee3725"/>
    <rect x="104.53" y="72.78" width="17.42" height="14.56" fill="#ee3424"/>
    <rect x="104.53" y="58.22" width="17.42" height="14.56" fill="#ee2d24"/>
    <rect x="104.53" y="43.67" width="17.42" height="14.56" fill="#ee2d24"/>
    <rect x="104.53" y="29.11" width="17.42" height="14.56" fill="#ee3625"/>
    <rect x="104.53" y="14.56" width="17.42" height="14.56" fill="#ef402a"/>
    <rect x="104.53" width="17.42" height="14.56" fill="#f04e35"/>
    <rect x="121.95" y="87.33" width="17.42" height="14.56" fill="#ef3b26"/>
    <rect x="121.95" y="72.78" width="17.42" height="14.56" fill="#ee3725"/>
    <rect x="121.95" y="29.11" width="17.42" height="14.56" fill="#ef3b26"/>
    <rect x="121.95" y="14.56" width="17.42" height="14.56" fill="#ef412b"/>
    <rect x="139.37" y="72.78" width="17.42" height="14.56" fill="#ef3b26"/>
    <rect x="139.37" y="58.22" width="17.42" height="14.56" fill="#ef3b26"/>
    <rect x="139.37" y="43.67" width="17.42" height="14.56" fill="#ef3b26"/>
    <rect x="139.37" y="29.11" width="17.42" height="14.56" fill="#ef402a"/>
    <rect x="121.76" y="43.96" width="17.03" height="28.82" fill="#bfbebe"/>
    <rect x="121.76" y="43.96" width="17.03" height="28.82" fill="none" stroke="#010101" stroke-linecap="round" stroke-linejoin="round" stroke-width=".75"/>
  </g>
</svg>