<?xml version="1.0" encoding="UTF-8"?>
<svg id="a" data-name="Layer 1" xmlns="http://www.w3.org/2000/svg" viewBox="0 0 156.79 116.45">
  <g id="b" data-name="4">
    <rect y="58.22" width="17.42" height="14.56" fill="#f9b29c"/>
    <rect y="43.67" width="17.42" height="14.56" fill="#f9b39d"/>
    <rect x="17.43" y="72.78" width="17.42" height="14.56" fill="#fabeaa"/>
    <rect x="17.43" y="58.22" width="17.42" height="14.56" fill="#fbc1ae"/>
    <rect x="17.43" y="43.67" width="17.42" height="14.56" fill="#fabba8"/>
    <rect x="17.43" y="29.11" width="17.42" height="14.56" fill="#fab9a5"/>
    <rect x="34.85" y="87.33" width="17.42" height="14.56" fill="#fbc1af"/>
    <rect x="34.85" y="72.78" width="17.42" height="14.56" fill="#fbc8b8"/>
    <rect x="34.85" y="58.22" width="17.42" height="14.56" fill="#fbc5b3"/>
    <rect x="34.85" y="43.67" width="17.42" height="14.56" fill="#fbc9b9"/>
    <rect x="34.85" y="29.11" width="17.42" height="14.56" fill="#fbc4b1"/>
    <rect x="34.85" y="14.56" width="17.42" height="14.56" fill="#fbc0ad"/>
    <rect x="52.27" y="101.89" width="17.42" height="14.56" fill="#fab8a4"/>
    <rect x="52.27" y="87.33" width="17.42" height="14.56" fill="#fabba6"/>
    <rect x="52.27" y="72.78" width="17.42" height="14.56" fill="#fccfc0"/>
    <rect x="52.27" y="58.22" width="17.42" height="14.56" fill="#fcccbc"/>
    <rect x="52.27" y="43.67" width="17.42" height="14.56" fill="#fbc5b4"/>
    <rect x="52.27" y="29.11" width="17.42" height="14.56" fill="#fcccbb"/>
    <rect x="52.27" y="14.56" width="17.42" height="14.56" fill="#fbc5b4"/>
    <rect x="52.27" width="17.42" height="14.56" fill="#fbc1ae"/>
    <rect x="69.69" y="101.89" width="17.42" height="14.56" fill="#f9b49f"/>
    <rect x="69.69" y="87.33" width="17.42" height="14.56" fill="#fbc4b2"/>
    <rect x="69.69" y="72.78" width="17.42" height="14.56" fill="#fbc0ad"/>
    <rect x="69.69" y="58.22" width="17.42" height="14.56" fill="#fbc5b4"/>
    <rect x="69.69" y="43.67" width="17.42" height="14.56" fill="#fbc8b7"/>
    <rect x="69.69" y="29.11" width="17.42" height="14.56" fill="#fbc8b7"/>
    <rect x="69.69" y="14.56" width="17.42" height="14.56" fill="#fabeaa"/>
    <rect x="69.69" width="17.42" height="14.56" fill="#fbc0ad"/>
    <rect x="87.11" y="101.89" width="17.42" height="14.56" fill="#fabca9"/>
    <rect x="87.11" y="87.33" width="17.42" height="14.56" fill="#fabeaa"/>
    <rect x="87.11" y="72.78" width="17.42" height="14.56" fill="#fbc7b5"/>
    <rect x="87.11" y="58.22" width="17.42" height="14.56" fill="#fbc4b1"/>
    <rect x="87.11" y="43.67" width="17.42" height="14.56" fill="#fbc8b6"/>
    <rect x="87.11" y="29.11" width="17.42" height="14.56" fill="#f9b099"/>
    <rect x="87.11" y="14.56" width="17.42" height="14.56" fill="#f7997f"/>
    <rect x="87.11" width="17.42" height="14.56" fill="#f2694d"/>
    <rect x="104.53" y="101.89" width="17.42" height="14.56" fill="#fab8a4"/>
    <rect x="104.53" y="87.33" width="17.42" height="14.56" fill="#fbc9b9"/>
    <rect x="104.53" y="72.78" width="17.42" height="14.56" fill="#fccebe"/>
    <rect x="104.53" y="58.22" width="17.42" height="14.56" fill="#fabeaa"/>
    <rect x="104.53" y="43.67" width="17.42" height="14.56" fill="#fbc4b1"/>
    <rect x="104.53" y="29.11" width="17.42" height="14.56" fill="#fabba8"/>
    <rect x="104.53" y="14.56" width="17.42" height="14.56" fill="#f7997f"/>
    <rect x="104.53" width="17.42" height="14.56" fill="#f37456"/>
    <rect x="121.95" y="87.33" width="17.42" height="14.56" fill="#fbc1ae"/>
    <rect x="121.95" y="72.78" width="17.42" height="14.56" fill="#fbc1af"/>
    <rect x="121.95" y="29.11" width="17.42" height="14.56" fill="#f9ae97"/>
    <rect x="121.95" y="14.56" width="17.42" height="14.56" fill="#f8a389"/>
    <rect x="139.37" y="72.78" width="17.42" height="14.56" fill="#fabba6"/>
    <rect x="139.37" y="58.22" width="17.42" height="14.56" fill="#fabba6"/>
    <rect x="139.37" y="43.67" width="17.42" height="14.56" fill="#f9b29c"/>
    <rect x="139.37" y="29.11" width="17.42" height="14.56" fill="#f8a78f"/>
    <rect x="121.76" y="43.96" width="17.03" height="28.82" fill="#bfbebe"/>
    <rect x="121.76" y="43.96" width="17.03" height="28.82" fill="none" stroke="#010101" stroke-linecap="round" stroke-linejoin="round" stroke-width=".75"/>
  </g>
</svg>