<?xml version="1.0" encoding="UTF-8"?>
<svg id="a" data-name="Layer 1" xmlns="http://www.w3.org/2000/svg" viewBox="0 0 156.79 116.44">
  <g id="b" data-name="6">
    <rect y="58.22" width="17.42" height="14.56" fill="#f58669"/>
    <rect y="43.66" width="17.42" height="14.56" fill="#f05036"/>
    <rect x="17.43" y="72.77" width="17.42" height="14.56" fill="#f8a78f"/>
    <rect x="17.43" y="58.22" width="17.42" height="14.56" fill="#f79e83"/>
    <rect x="17.43" y="43.66" width="17.42" height="14.56" fill="#f16143"/>
    <rect x="17.43" y="29.11" width="17.42" height="14.56" fill="#f36e50"/>
    <rect x="34.85" y="87.33" width="17.42" height="14.56" fill="#fabeac"/>
    <rect x="34.85" y="72.77" width="17.42" height="14.56" fill="#f9b19b"/>
    <rect x="34.85" y="58.22" width="17.42" height="14.56" fill="#fab5a0"/>
    <rect x="34.85" y="43.66" width="17.42" height="14.56" fill="#f37455"/>
    <rect x="34.85" y="29.11" width="17.42" height="14.56" fill="#f6957a"/>
    <rect x="34.85" y="14.55" width="17.42" height="14.56" fill="#f68f73"/>
    <rect x="52.27" y="101.88" width="17.42" height="14.56" fill="#fbc0ac"/>
    <rect x="52.27" y="87.33" width="17.42" height="14.56" fill="#fabdaa"/>
    <rect x="52.27" y="72.77" width="17.42" height="14.56" fill="#fcd1c4"/>
    <rect x="52.27" y="58.22" width="17.42" height="14.56" fill="#fbc8b6"/>
    <rect x="52.27" y="43.66" width="17.42" height="14.56" fill="#f58567"/>
    <rect x="52.27" y="29.11" width="17.42" height="14.56" fill="#f8a68e"/>
    <rect x="52.27" y="14.55" width="17.42" height="14.56" fill="#f8a58c"/>
    <rect x="52.27" width="17.42" height="14.56" fill="#f8a086"/>
    <rect x="69.69" y="101.88" width="17.42" height="14.56" fill="#fbc1ae"/>
    <rect x="69.69" y="87.33" width="17.42" height="14.56" fill="#fbc0ac"/>
    <rect x="69.69" y="72.77" width="17.42" height="14.56" fill="#fbc8b8"/>
    <rect x="69.69" y="58.22" width="17.42" height="14.56" fill="#fcd0c1"/>
    <rect x="69.69" y="43.66" width="17.42" height="14.56" fill="#f58b6d"/>
    <rect x="69.69" y="29.11" width="17.42" height="14.56" fill="#f8a78f"/>
    <rect x="69.69" y="14.55" width="17.42" height="14.56" fill="#f9ad94"/>
    <rect x="69.69" width="17.42" height="14.56" fill="#f79d82"/>
    <rect x="87.11" y="101.88" width="17.42" height="14.56" fill="#fbc3b0"/>
    <rect x="87.11" y="87.33" width="17.42" height="14.56" fill="#fcccbc"/>
    <rect x="87.11" y="72.77" width="17.42" height="14.56" fill="#fcccbb"/>
    <rect x="87.11" y="58.22" width="17.42" height="14.56" fill="#fcd0c1"/>
    <rect x="87.11" y="43.66" width="17.42" height="14.56" fill="#fcd2c3"/>
    <rect x="87.11" y="29.11" width="17.42" height="14.56" fill="#f69378"/>
    <rect x="87.11" y="14.55" width="17.42" height="14.56" fill="#fabdaa"/>
    <rect x="87.11" width="17.42" height="14.56" fill="#f9b19b"/>
    <rect x="104.53" y="101.88" width="17.42" height="14.56" fill="#fbc0ad"/>
    <rect x="104.53" y="87.33" width="17.42" height="14.56" fill="#fbc8b6"/>
    <rect x="104.53" y="72.77" width="17.42" height="14.56" fill="#fbc3b0"/>
    <rect x="104.53" y="58.22" width="17.42" height="14.56" fill="#fbc1ae"/>
    <rect x="104.53" y="43.66" width="17.42" height="14.56" fill="#fbc0ac"/>
    <rect x="104.53" y="29.11" width="17.42" height="14.56" fill="#fcd0c1"/>
    <rect x="104.53" y="14.55" width="17.42" height="14.56" fill="#fcccbc"/>
    <rect x="104.53" width="17.42" height="14.56" fill="#fbc8b8"/>
    <rect x="121.95" y="87.33" width="17.42" height="14.56" fill="#fbc1ae"/>
    <rect x="121.95" y="72.77" width="17.42" height="14.56" fill="#fbc8b7"/>
    <rect x="121.95" y="29.11" width="17.42" height="14.56" fill="#fccfc0"/>
    <rect x="121.95" y="14.55" width="17.42" height="14.56" fill="#fcccbc"/>
    <rect x="139.37" y="72.77" width="17.42" height="14.56" fill="#fbc4b2"/>
    <rect x="139.37" y="58.22" width="17.42" height="14.56" fill="#fbc3b0"/>
    <rect x="139.37" y="43.66" width="17.42" height="14.56" fill="#fcccbb"/>
    <rect x="139.37" y="29.11" width="17.42" height="14.56" fill="#fbc0ad"/>
    <rect x="121.76" y="43.96" width="17.03" height="28.82" fill="#bfbebe"/>
    <rect x="121.76" y="43.96" width="17.03" height="28.82" fill="none" stroke="#010101" stroke-linecap="round" stroke-linejoin="round" stroke-width=".75"/>
  </g>
</svg>