<?xml version="1.0" encoding="UTF-8"?>
<svg id="a" data-name="Layer 1" xmlns="http://www.w3.org/2000/svg" viewBox="0 0 156.79 116.44">
  <g id="b" data-name="8">
    <rect y="58.22" width="17.42" height="14.56" fill="#f04b32"/>
    <rect y="43.66" width="17.42" height="14.56" fill="#f04b32"/>
    <rect x="17.43" y="72.77" width="17.42" height="14.56" fill="#f04f35"/>
    <rect x="17.43" y="58.22" width="17.42" height="14.56" fill="#f04e35"/>
    <rect x="17.43" y="43.66" width="17.42" height="14.56" fill="#ef3f28"/>
    <rect x="17.43" y="29.11" width="17.42" height="14.56" fill="#ef432b"/>
    <rect x="34.85" y="87.33" width="17.42" height="14.56" fill="#f26749"/>
    <rect x="34.85" y="72.77" width="17.42" height="14.56" fill="#f15b3c"/>
    <rect x="34.85" y="58.22" width="17.42" height="14.56" fill="#f15c3e"/>
    <rect x="34.85" y="43.66" width="17.42" height="14.56" fill="#ef412b"/>
    <rect x="34.85" y="29.11" width="17.42" height="14.56" fill="#ef3b26"/>
    <rect x="34.85" y="14.55" width="17.42" height="14.56" fill="#f04931"/>
    <rect x="52.27" y="101.88" width="17.42" height="14.56" fill="#ef462d"/>
    <rect x="52.27" y="87.33" width="17.42" height="14.56" fill="#f1593b"/>
    <rect x="52.27" y="72.77" width="17.42" height="14.56" fill="#f68f72"/>
    <rect x="52.27" y="58.22" width="17.42" height="14.56" fill="#ef482f"/>
    <rect x="52.27" y="43.66" width="17.42" height="14.56" fill="#ef3925"/>
    <rect x="52.27" y="29.11" width="17.42" height="14.56" fill="#f79b80"/>
    <rect x="52.27" y="14.55" width="17.42" height="14.56" fill="#ef462d"/>
    <rect x="52.27" width="17.42" height="14.56" fill="#f04c33"/>
    <rect x="69.69" y="101.88" width="17.42" height="14.56" fill="#ef432b"/>
    <rect x="69.69" y="87.33" width="17.42" height="14.56" fill="#f05036"/>
    <rect x="69.69" y="72.77" width="17.42" height="14.56" fill="#f04c33"/>
    <rect x="69.69" y="58.22" width="17.42" height="14.56" fill="#ef472e"/>
    <rect x="69.69" y="43.66" width="17.42" height="14.56" fill="#ee2f24"/>
    <rect x="69.69" y="29.11" width="17.42" height="14.56" fill="#ee3324"/>
    <rect x="69.69" y="14.55" width="17.42" height="14.56" fill="#f04930"/>
    <rect x="69.69" width="17.42" height="14.56" fill="#f04b32"/>
    <rect x="87.11" y="101.88" width="17.42" height="14.56" fill="#ef462d"/>
    <rect x="87.11" y="87.33" width="17.42" height="14.56" fill="#f04931"/>
    <rect x="87.11" y="72.77" width="17.42" height="14.56" fill="#f04c33"/>
    <rect x="87.11" y="58.22" width="17.42" height="14.56" fill="#ee2724"/>
    <rect x="87.11" y="43.66" width="17.42" height="14.56" fill="#ee3024"/>
    <rect x="87.11" y="29.11" width="17.42" height="14.56" fill="#ee3625"/>
    <rect x="87.11" y="14.55" width="17.42" height="14.56" fill="#ef412b"/>
    <rect x="87.11" width="17.42" height="14.56" fill="#f04d33"/>
    <rect x="104.53" y="101.88" width="17.42" height="14.56" fill="#f04c33"/>
    <rect x="104.53" y="87.33" width="17.42" height="14.56" fill="#ef412b"/>
    <rect x="104.53" y="72.77" width="17.42" height="14.56" fill="#f47d5f"/>
    <rect x="104.53" y="58.22" width="17.42" height="14.56" fill="#ee3024"/>
    <rect x="104.53" y="43.66" width="17.42" height="14.56" fill="#ee3725"/>
    <rect x="104.53" y="29.11" width="17.42" height="14.56" fill="#f58669"/>
    <rect x="104.53" y="14.55" width="17.42" height="14.56" fill="#ef462d"/>
    <rect x="104.53" width="17.42" height="14.56" fill="#f04f35"/>
    <rect x="121.95" y="87.33" width="17.42" height="14.56" fill="#ef442c"/>
    <rect x="121.95" y="72.77" width="17.42" height="14.56" fill="#ef3c26"/>
    <rect x="121.95" y="29.11" width="17.42" height="14.56" fill="#ef412b"/>
    <rect x="121.95" y="14.55" width="17.42" height="14.56" fill="#f04931"/>
    <rect x="139.37" y="72.77" width="17.42" height="14.56" fill="#ef3d27"/>
    <rect x="139.37" y="58.22" width="17.42" height="14.56" fill="#ef3e27"/>
    <rect x="139.37" y="43.66" width="17.42" height="14.56" fill="#ef3f28"/>
    <rect x="139.37" y="29.11" width="17.42" height="14.56" fill="#ef462d"/>
    <rect x="121.76" y="43.96" width="17.03" height="28.82" fill="#bfbebe"/>
    <rect x="121.76" y="43.96" width="17.03" height="28.82" fill="none" stroke="#010101" stroke-linecap="round" stroke-linejoin="round" stroke-width=".75"/>
  </g>
</svg>