<?xml version="1.0" encoding="UTF-8"?>
<svg id="a" data-name="Layer 1" xmlns="http://www.w3.org/2000/svg" viewBox="0 0 156.79 116.44">
  <g id="b" data-name="9">
    <rect y="58.22" width="17.42" height="14.56" fill="#f15b3d"/>
    <rect y="43.66" width="17.42" height="14.56" fill="#fcccbd"/>
    <rect x="17.43" y="72.77" width="17.42" height="14.56" fill="#f05338"/>
    <rect x="17.43" y="58.22" width="17.42" height="14.56" fill="#f15f41"/>
    <rect x="17.43" y="43.66" width="17.42" height="14.56" fill="#fbc1ae"/>
    <rect x="17.43" y="29.11" width="17.42" height="14.56" fill="#fabba8"/>
    <rect x="34.85" y="87.33" width="17.42" height="14.56" fill="#ef472e"/>
    <rect x="34.85" y="72.77" width="17.42" height="14.56" fill="#ef3d27"/>
    <rect x="34.85" y="58.22" width="17.42" height="14.56" fill="#ef472e"/>
    <rect x="34.85" y="43.66" width="17.42" height="14.56" fill="#fbc1af"/>
    <rect x="34.85" y="29.11" width="17.42" height="14.56" fill="#fbc1ae"/>
    <rect x="34.85" y="14.55" width="17.42" height="14.56" fill="#f9b29c"/>
    <rect x="52.27" y="101.88" width="17.42" height="14.56" fill="#ef472e"/>
    <rect x="52.27" y="87.33" width="17.42" height="14.56" fill="#ef3f28"/>
    <rect x="52.27" y="72.77" width="17.42" height="14.56" fill="#f05238"/>
    <rect x="52.27" y="58.22" width="17.42" height="14.56" fill="#ee3324"/>
    <rect x="52.27" y="43.66" width="17.42" height="14.56" fill="#fcd4c5"/>
    <rect x="52.27" y="29.11" width="17.42" height="14.56" fill="#fcd1c2"/>
    <rect x="52.27" y="14.55" width="17.42" height="14.56" fill="#fbc1ae"/>
    <rect x="52.27" width="17.42" height="14.56" fill="#fbc1af"/>
    <rect x="69.69" y="101.88" width="17.42" height="14.56" fill="#f04931"/>
    <rect x="69.69" y="87.33" width="17.42" height="14.56" fill="#ef3f28"/>
    <rect x="69.69" y="72.77" width="17.42" height="14.56" fill="#f47a5d"/>
    <rect x="69.69" y="58.22" width="17.42" height="14.56" fill="#f58c6f"/>
    <rect x="69.69" y="43.66" width="17.42" height="14.56" fill="#fdd9cd"/>
    <rect x="69.69" y="29.11" width="17.42" height="14.56" fill="#fcccbc"/>
    <rect x="69.69" y="14.55" width="17.42" height="14.56" fill="#fbc5b3"/>
    <rect x="69.69" width="17.42" height="14.56" fill="#fddace"/>
    <rect x="87.11" y="101.88" width="17.42" height="14.56" fill="#f9af98"/>
    <rect x="87.11" y="87.33" width="17.42" height="14.56" fill="#f9af98"/>
    <rect x="87.11" y="72.77" width="17.42" height="14.56" fill="#fbc0ad"/>
    <rect x="87.11" y="58.22" width="17.42" height="14.56" fill="#fddace"/>
    <rect x="87.11" y="43.66" width="17.42" height="14.56" fill="#fddace"/>
    <rect x="87.11" y="29.11" width="17.42" height="14.56" fill="#fdd7ca"/>
    <rect x="87.11" y="14.55" width="17.42" height="14.56" fill="#fcccbc"/>
    <rect x="87.11" width="17.42" height="14.56" fill="#fbcbba"/>
    <rect x="104.53" y="101.88" width="17.42" height="14.56" fill="#fab8a3"/>
    <rect x="104.53" y="87.33" width="17.42" height="14.56" fill="#fab5a0"/>
    <rect x="104.53" y="72.77" width="17.42" height="14.56" fill="#fbcbba"/>
    <rect x="104.53" y="58.22" width="17.42" height="14.56" fill="#fcd1c4"/>
    <rect x="104.53" y="43.66" width="17.42" height="14.56" fill="#fdd8ca"/>
    <rect x="104.53" y="29.11" width="17.42" height="14.56" fill="#fccfbf"/>
    <rect x="104.53" y="14.55" width="17.42" height="14.56" fill="#fdd6c9"/>
    <rect x="104.53" width="17.42" height="14.56" fill="#fddace"/>
    <rect x="121.95" y="87.33" width="17.42" height="14.56" fill="#fcccbd"/>
    <rect x="121.95" y="72.77" width="17.42" height="14.56" fill="#fbc0ad"/>
    <rect x="121.95" y="29.11" width="17.42" height="14.56" fill="#fcccbd"/>
    <rect x="121.95" y="14.55" width="17.42" height="14.56" fill="#fdd9cd"/>
    <rect x="139.37" y="72.77" width="17.42" height="14.56" fill="#fcd1c2"/>
    <rect x="139.37" y="58.22" width="17.42" height="14.56" fill="#fdd6c9"/>
    <rect x="139.37" y="43.66" width="17.42" height="14.56" fill="#fcccbd"/>
    <rect x="139.37" y="29.11" width="17.42" height="14.56" fill="#fcd4c5"/>
    <rect x="121.76" y="43.96" width="17.03" height="28.82" fill="#bfbebe"/>
    <rect x="121.76" y="43.96" width="17.03" height="28.82" fill="none" stroke="#010101" stroke-linecap="round" stroke-linejoin="round" stroke-width=".75"/>
  </g>
</svg>